<?xml version="1.0" standalone="no"?>
<!DOCTYPE svg PUBLIC "-//W3C//DTD SVG 1.1//EN" "http://www.w3.org/Graphics/SVG/1.1/DTD/svg11.dtd" >
<svg xmlns="http://www.w3.org/2000/svg" xmlns:svg="http://www.w3.org/2000/svg" xmlns:xlink="http://www.w3.org/1999/xlink" viewBox="0 0 1024 1024"><path d="M949.35 992.24Q907.39 973.95 888.29 989.4Q870.46 901.19 851.54 891.21Q824.8 901.57 816.43 903.69L834.44 895.58Q849.12 840.11 903.98 849.4L934.09 834.88Q886.43 140.24 862.19 111.46L876.84 123.95Q909.69 126.8 955.21 99.7L937.38 149.95Q1005.47 118.66 961.89 177.72Q952.06 198.75 947.4 902.47Q1007.64 1014.38 904.03 948.37ZM161.73 943.69Q143.65 992.15 104.92 978.13Q63.53 977.25 115.84 961.57L103.14 885.96Q121.14 847.2 156.63 869.23Q250.28 843.79 275.24 822.6L247.69 836.72Q323.4 798.54 294.04 875.23L279.7 904.76L141.49 922.74Q158.5 1003.55 131.66 983.63ZM382.68 943.43L343.96 941.25Q359.26 914.93 359.95 928.37Q355.93 866.43 411.77 821.16Q421.2 770.56 436.56 810.41Q391.89 744.32 477.69 742.76L469.78 763.43Q476.81 786.07 464.85 823.53Q469.84 807.19 435.9 883.02Q435.27 925.96 406.2 894.89Q400.52 984.12 414.93 966.9ZM600.42 945.56L592.18 930.75Q541.59 896.34 531.01 852.21Q534.3 830.72 546.39 774.57L546.94 793.59Q517.08 781.8 573.98 720.35L604.19 781.23L658.1 811.3Q653.4 846.71 711.96 891.74L666.76 876.35Q644.55 883.89 663.98 932.64ZM389.85 687.96Q358.14 693.5 336.5 698.53Q326.82 685.88 326.55 209.24Q334.5 86.36 362.46 114.32Q406.36 135.53 469.8 120.34Q619.34 157.91 639.82 122.56Q639.34 134.28 669.66 167.75Q634.25 185.49 664.75 685.63Q634.16 683.89 672.4 658.77Q592.1 693.22 438.49 739.71ZM577.49 622.37L597.19 511.85L438.29 519.47L399.52 640.73ZM778.19 577.31L703.07 548.29Q700.42 543.14 716.23 511.93L689.26 143.11Q702.22 131.42 695.51 165.77Q701.53 105.45 729.27 91.42L739.55 93.83L802.42 116.38L823.88 556.41L767.76 555.19Q747.63 581.07 779.2 569.91ZM242.85 468.5Q203.72 480.68 185.66 510.64Q116.17 507.97 130.45 423.8Q75.15 487.15 92.78 414.33L99.87 422Q105.32 402.23 113.79 374.58Q219.18 441.27 281.27 457.53Q323.2 424.35 337.73 447.26L311.73 500.32Q249.49 545.52 291.37 496.47ZM544.45 421.3L611.64 325.4H437.31L410.1 430.41ZM614.26 241.48L612.5 185.49H450.47V285.79ZM241.18 262.7Q208.78 254.97 182.44 221.85Q159.98 159.68 140.18 191.99Q130.97 192.38 65.63 164.98L145.67 95.9Q121.38 140.35 149.93 103.9Q208.21 108.84 205.39 153.9Q221.59 182.96 306.96 167.17Q321.26 180.69 277.33 168.29L242.16 217.42Q227.66 205.33 218.05 260.23Z" fill="black"></path></svg>