<?xml version="1.0" standalone="no"?>
<!DOCTYPE svg PUBLIC "-//W3C//DTD SVG 1.1//EN" "http://www.w3.org/Graphics/SVG/1.1/DTD/svg11.dtd" >
<svg xmlns="http://www.w3.org/2000/svg" xmlns:svg="http://www.w3.org/2000/svg" xmlns:xlink="http://www.w3.org/1999/xlink" viewBox="0 0 1024 1024"><path d="M915.43 940.95Q848.96 935.92 819.07 892.27Q812.72 913.35 768.58 859.04Q758.52 851.13 767.12 810.69L784.99 828.76Q802.81 782 800.42 791.88L843.51 817.71Q830.84 113.89 850.85 89.42L864.03 59.57Q862.48 44.32 908.22 53.79L886.79 74.53Q926.8 110.7 915.92 106.2Q916.43 162.25 945.03 875.03Q912.7 933.67 868.75 936.25ZM87.82 941.72Q63 932.49 91.09 912.1Q32.12 898.05 39.57 847.52L43.34 846.13Q88.18 825.26 153.5 813.03Q185.23 774.39 190.88 736.85L233.24 783.65Q225.31 760.28 250.25 791.53L210.91 839.49L93.93 902.49Q92.02 892.95 119.23 953.98ZM328.7 893.55L333.44 862.86Q308.25 863.25 302.61 846.62Q317.67 825.05 345.58 762.59Q347.88 736.33 354.78 734.77Q374.45 717.42 405.3 697.59L409.12 695.76Q428.46 742.82 441.15 758.36Q400.58 774.18 432.23 831.56Q408.87 867.46 385.6 869.95Q378.64 889.35 336.73 883.38ZM606.56 854.63L569.37 861.54Q512.35 832.75 518.31 810.29Q486.36 780.98 464.84 716.06L471.48 679.8Q491.68 684.64 525.02 697.1L542.76 711.13L597.65 798.49Q639.14 828.08 637.92 804.54L597.15 873.68Q607.31 842.48 597.1 880.44ZM352.05 650.46Q301 632.46 302.91 633.94Q332.28 639.1 278.06 109.48Q311.47 72.79 344.92 49.85Q320.14 77.26 433.65 60.31Q556.27 76.75 577.98 43.28Q583.66 86.88 615.18 79.93Q592.94 122.28 614.53 613.57Q590.79 634.48 561.6 634.78Q559.23 634.54 334.05 656.31ZM548.71 553.56L530.73 451.48L408.86 450.84L368.77 581.72ZM692.09 555.53L681.4 506.47Q664.27 527.98 641.99 521.42L664.75 120.06Q678.33 118.6 679.5 74.33Q671.82 75.09 732.47 71.91L747.81 60.98L768.57 120.05L720.89 513.61L734.48 503.25Q736.48 542.83 682.29 547.12ZM218.15 470.02Q183.1 432.79 127.54 443.98Q77.67 420.9 46.86 392.1Q61.15 390.41 32.07 373.92L51.97 353.14Q58.6 326.08 78.78 363.75Q228.94 355.33 234.9 395.93Q261.42 415.55 251.17 427.35L242.28 440.25Q225.63 473.82 219.57 478.52ZM514.09 364.45L519.9 284.16H353.76L374.78 363.75ZM511.36 210.37L535.95 139.88H385.67V207.67ZM178.76 160.23Q151.01 181.93 133.54 125.5Q101.2 135.91 66.83 126.87Q66.4 133.79 69.55 89.01L85.95 97.9Q79.18 43.75 132.01 51.63Q137.92 62.33 172.48 82.35Q191.18 91.08 227.71 118.09Q223.03 144.83 225.21 161.68L218.63 170.55Q226.35 169.44 191.97 178.24Z" fill="black"></path></svg>